# xmcd
#
# Track frame offsets: 
#        183
#        19185
#        31948
#        43708
#        54748
#        67315
#        79380
#        91288
#        101973
#        114098
#        126178
#        136960
#        151075
#        161450
#        171888
#        183170
#
# Disc length: 2625 seconds
#
# Revision: 4
# Processed by: cddbd v1.5.2PL0 Copyright (c) Steve Scherf et al.
# Submitted via: ExactAudioCopyFreeDBPlugin 1.0
#
DISCID=d30a3f10
DTITLE=Various Artist - Sweet Dreams
DYEAR=0
DGENRE=Dream
TTITLE0=Ray Charles - I can't stop loving you
TTITLE1=Bobby Vinton - Blue Velvet
TTITLE2=The Platters - Only you
TTITLE3=The Drifters - Save the last dance for me
TTITLE4=Brian Hyland - Ginny come latley
TTITLE5=The Platters - Smoke gets in your eyes
TTITLE6=Paul Anka - Put your head on my shoulder
TTITLE7=Fats Domino - Blueberry hill
TTITLE8=Roy Orbison - Blue Bayou
TTITLE9=Bobby Vinton - Mister lonly
TTITLE10=Teddy Bears - To know him is to love him
TTITLE11=Elvis Presley - Are you lonsome to night
TTITLE12=Pat Boone - Love letters in the sand
TTITLE13=The Everly Brothers - All I have to do is dream
TTITLE14=Paul and Paula - Hey Paula
TTITLE15=Connie Francis - Don't break the heart that loves you
EXTD=
EXTT0=
EXTT1=
EXTT2=
EXTT3=
EXTT4=
EXTT5=
EXTT6=
EXTT7=
EXTT8=
EXTT9=
EXTT10=
EXTT11=
EXTT12=
EXTT13=
EXTT14=
EXTT15=
PLAYORDER=
